<svg xmlns="http://www.w3.org/2000/svg" id="Layer_1" x="0" y="0" version="1.1" viewBox="0 0 48 48" xml:space="preserve"><path fill="#a5d6a7" d="M14,27c-2.3,0-4.1,1.8-4,3.9v12.3c-0.1,2.1,1.7,3.9,4,3.9s4.1-1.8,4-3.9V30.9C18.1,28.8,16.3,27,14,27z"/><path fill="#a5d6a7" d="M28,34.9c-2.3,0-4.1,1.9-4,4.1v3.9c-0.2,2.2,1.7,4.1,4,4.1s4.1-1.9,4-4.1V39C32.1,36.8,30.3,34.9,28,34.9z"/><path fill="#a5d6a7" d="M42,24.1c-2.2,0-4,1.6-4,3.7v15.7c0,2,1.8,3.7,4,3.7s4-1.6,4-3.7V27.8C46,25.8,44.2,24.1,42,24.1z"/><circle cx="14" cy="17" r="5" fill="#a5d6a7"/><circle cx="28" cy="25" r="5" fill="#a5d6a7"/><circle cx="42" cy="14" r="5" fill="#a5d6a7"/><path fill="none" stroke="#18193f" stroke-linecap="round" stroke-linejoin="round" stroke-miterlimit="10" stroke-width="3" d="M6.5,32.7c0,3,0,5.3,0,6.3c0,1.9,1.6,3.5,3.5,3.5s3.5-1.6,3.5-3.5c0-1.7,0-10.3,0-12c0-1.9-1.6-3.5-3.5-3.5	S6.5,25.1,6.5,27"/><path fill="none" stroke="#18193f" stroke-linecap="round" stroke-linejoin="round" stroke-miterlimit="10" stroke-width="3" d="M26.3,32.4c-0.6-0.5-1.4-0.9-2.3-0.9c-1.9,0-3.5,1.6-3.5,3.5c0,1.7,0,2.3,0,4c0,1.9,1.6,3.5,3.5,3.5	s3.5-1.6,3.5-3.5"/><path fill="none" stroke="#18193f" stroke-linecap="round" stroke-linejoin="round" stroke-miterlimit="10" stroke-width="3" d="M41.5,24c0-1.9-1.6-3.5-3.5-3.5s-3.5,1.6-3.5,3.5c0,1.7,0,13.3,0,15c0,1.9,1.6,3.5,3.5,3.5s3.5-1.6,3.5-3.5	c0-1,0-5.5,0-9.3"/><circle cx="10" cy="13" r="3.5" fill="none" stroke="#18193f" stroke-linecap="round" stroke-linejoin="round" stroke-miterlimit="10" stroke-width="3"/><circle cx="24" cy="21" r="3.5" fill="none" stroke="#18193f" stroke-linecap="round" stroke-linejoin="round" stroke-miterlimit="10" stroke-width="3"/><circle cx="38" cy="10" r="3.5" fill="none" stroke="#18193f" stroke-linecap="round" stroke-linejoin="round" stroke-miterlimit="10" stroke-width="3"/><line x1="26.8" x2="35.2" y1="18.8" y2="12.2" fill="none" stroke="#18193f" stroke-linecap="round" stroke-linejoin="round" stroke-miterlimit="10" stroke-width="3"/><line x1="13" x2="21" y1="14.7" y2="19.3" fill="none" stroke="#18193f" stroke-linecap="round" stroke-linejoin="round" stroke-miterlimit="10" stroke-width="3"/></svg>