<svg xmlns="http://www.w3.org/2000/svg" id="Layer_2" x="0" y="0" version="1.1" viewBox="0 0 48 48" xml:space="preserve"><path fill="#a5d6a7" d="M11,25.5c1.9,0,3.5-1.1,4.4-2.6L26.1,25c0.5,2.3,2.5,4,4.9,4c2.8,0,5-2.2,5-5c0-0.7-0.2-1.4-0.4-2l3.6-4.3 c0.6,0.2,1.2,0.4,1.8,0.4c2.8,0,5-2.2,5-5s-2.2-5-5-5s-5,2.2-5,5c0,1,0.3,2,0.8,2.8l-3.3,4C32.8,19.3,31.9,19,31,19 c-2,0-3.8,1.2-4.6,3l-10.5-2c-0.3-2.5-2.4-4.4-4.9-4.4c-2.8,0-5,2.2-5,5S8.2,25.5,11,25.5z"/><path fill="#a5d6a7" d="M43,28c-2.8,0-5,2.2-5,5c0,0.7,0.2,1.4,0.5,2.1l-2.9,2.6C34.8,37.3,33.9,37,33,37c-1.1,0-2.1,0.4-2.9,1 l-3.3-2.5c0.2-0.5,0.3-1,0.3-1.5c0-2.8-2.2-5-5-5s-5,2.2-5,5c0,0.6,0.1,1.2,0.3,1.8l-3.6,3C12.9,38.3,12,38,11,38c-2.8,0-5,2.2-5,5 s2.2,5,5,5s5-2.2,5-5c0-0.7-0.1-1.3-0.4-1.9l3.6-3C20,38.7,21,39,22,39c1.1,0,2.2-0.4,3-1l3.3,2.4C28.1,40.9,28,41.4,28,42 c0,2.8,2.2,5,5,5s5-2.2,5-5c0-0.7-0.2-1.4-0.5-2.1l2.9-2.6c0.7,0.4,1.6,0.7,2.5,0.7c2.8,0,5-2.2,5-5S45.8,28,43,28z"/><line x1="32.2" x2="36.8" y1="17.3" y2="11.7" fill="none" stroke="#18193f" stroke-linecap="round" stroke-linejoin="round" stroke-miterlimit="10" stroke-width="3"/><line x1="12.5" x2="25.5" y1="17.2" y2="19.7" fill="none" stroke="#18193f" stroke-linecap="round" stroke-linejoin="round" stroke-miterlimit="10" stroke-width="3"/><line x1="33.9" x2="38.4" y1="35.4" y2="31.3" fill="none" stroke="#18193f" stroke-linecap="round" stroke-linejoin="round" stroke-miterlimit="10" stroke-width="3"/><line x1="23.1" x2="28.1" y1="32.2" y2="35.8" fill="none" stroke="#18193f" stroke-linecap="round" stroke-linejoin="round" stroke-miterlimit="10" stroke-width="3"/><line x1="11.7" x2="17" y1="36.8" y2="32.4" fill="none" stroke="#18193f" stroke-linecap="round" stroke-linejoin="round" stroke-miterlimit="10" stroke-width="3"/><path fill="none" stroke="#18193f" stroke-linecap="round" stroke-linejoin="round" stroke-miterlimit="10" stroke-width="3" d="M26.8,22.7c-0.8-0.6-1.3-1.6-1.3-2.7c0-1.9,1.6-3.5,3.5-3.5s3.5,1.6,3.5,3.5c0,0.6-0.1,1.1-0.4,1.6"/><path fill="none" stroke="#18193f" stroke-linecap="round" stroke-linejoin="round" stroke-miterlimit="10" stroke-width="3" d="M12.4,17.3c-0.4,1.9-2.3,3.1-4.2,2.6s-3.1-2.3-2.6-4.2c0.4-1.9,2.3-3.1,4.2-2.6"/><path fill="none" stroke="#18193f" stroke-linecap="round" stroke-linejoin="round" stroke-miterlimit="10" stroke-width="3" d="M42.5,9c0,1.9-1.6,3.5-3.5,3.5s-3.5-1.6-3.5-3.5s1.6-3.5,3.5-3.5"/><path fill="none" stroke="#18193f" stroke-linecap="round" stroke-linejoin="round" stroke-miterlimit="10" stroke-width="3" d="M6.4,41.3c-0.6-0.6-0.9-1.4-0.9-2.3c0-1.9,1.6-3.5,3.5-3.5s3.5,1.6,3.5,3.5c0,1.3-0.7,2.4-1.7,3"/><path fill="none" stroke="#18193f" stroke-linecap="round" stroke-linejoin="round" stroke-miterlimit="10" stroke-width="3" d="M22.4,27.5c0.7,0.6,1.1,1.5,1.1,2.5c0,1.9-1.6,3.5-3.5,3.5s-3.5-1.6-3.5-3.5c0-0.9,0.4-1.8,1-2.4"/><path fill="none" stroke="#18193f" stroke-linecap="round" stroke-linejoin="round" stroke-miterlimit="10" stroke-width="3" d="M28.8,40.7c-0.8-0.6-1.3-1.6-1.3-2.7c0-1.9,1.6-3.5,3.5-3.5s3.5,1.6,3.5,3.5c0,1.2-0.6,2.2-1.4,2.8"/><path fill="none" stroke="#18193f" stroke-linecap="round" stroke-linejoin="round" stroke-miterlimit="10" stroke-width="3" d="M44.5,29c0,1.9-1.6,3.5-3.5,3.5s-3.5-1.6-3.5-3.5s1.6-3.5,3.5-3.5"/></svg>