<svg xmlns="http://www.w3.org/2000/svg" id="Layer_1" x="0" y="0" version="1.1" viewBox="0 0 48 48" xml:space="preserve"><path fill="#8ce7f2" d="M38.8,44c1.2,0,2.1-1,2.1-2.2C40.4,29.5,35.1,21,29.5,21s-10.9,8.5-11.4,20.7C18,43,19,44,20.2,44H38.8z"/><polyline fill="none" stroke="#18193f" stroke-linecap="round" stroke-linejoin="round" stroke-width="3" points="7.5,7.5 7.5,40.5 40.5,40.5"/><path fill="none" stroke="#18193f" stroke-linecap="round" stroke-linejoin="round" stroke-width="3" d="M16.9,25.8c-1.5,3.7-2.4,8.4-2.4,13.7"/><path fill="none" stroke="#18193f" stroke-linecap="round" stroke-linejoin="round" stroke-width="3" d="M36.5,39.5c0-12.9-5.3-22-11-22c-2.1,0-4.2,1.3-6,3.6"/><circle cx="9.5" cy="11.5" r="1.5" fill="#18193f"/><circle cx="14.5" cy="11.5" r="1.5" fill="#18193f"/><circle cx="19.5" cy="11.5" r="1.5" fill="#18193f"/><circle cx="24.5" cy="11.5" r="1.5" fill="#18193f"/><circle cx="29.5" cy="11.5" r="1.5" fill="#18193f"/><circle cx="34.5" cy="11.5" r="1.5" fill="#18193f"/><circle cx="39.5" cy="11.5" r="1.5" fill="#18193f"/></svg>