<svg xmlns="http://www.w3.org/2000/svg" id="Layer_1" x="0" y="0" version="1.1" viewBox="0 0 48 48" xml:space="preserve"><path fill="#8ce7f2" d="M38.4,11c1.1,0,2.1,1,2,2.1c-0.6,11.5-5.6,19.5-10.9,19.5s-10.4-8-10.9-19.5c-0.1-1.1,0.9-2.1,2-2.1H38.4z"/><polyline fill="none" stroke="#18193f" stroke-linecap="round" stroke-linejoin="round" stroke-width="3" points="7.5,7.5 7.5,40.5 40.5,40.5"/><circle cx="9.5" cy="34.5" r="1.5" fill="#18193f"/><circle cx="14.5" cy="34.5" r="1.5" fill="#18193f"/><circle cx="19.5" cy="34.5" r="1.5" fill="#18193f"/><circle cx="24.5" cy="34.5" r="1.5" fill="#18193f"/><circle cx="29.5" cy="34.5" r="1.5" fill="#18193f"/><circle cx="34.5" cy="34.5" r="1.5" fill="#18193f"/><circle cx="39.5" cy="34.5" r="1.5" fill="#18193f"/><path fill="none" stroke="#18193f" stroke-linecap="round" stroke-linejoin="round" stroke-width="3" d="M15.4,15.8c-0.6-2.5-0.9-5.3-0.9-8.3"/><path fill="none" stroke="#18193f" stroke-linecap="round" stroke-linejoin="round" stroke-width="3" d="M36.5,7.5c0,12.3-5.3,21-11,21c-3.3,0-6.4-2.8-8.5-7.5"/></svg>