<svg xmlns="http://www.w3.org/2000/svg" id="Layer_1" x="0" y="0" version="1.1" viewBox="0 0 48 48" xml:space="preserve"><path fill="#a5d6a7" d="M28,23c-2.8,0-5,2.2-5,5v15c0,2.8,2.2,5,5,5s5-2.2,5-5V28C33,25.2,30.8,23,28,23z"/><path fill="#a5d6a7" d="M14,32c-2.8,0-5,2.2-5,5v6c0,2.8,2.2,5,5,5s5-2.2,5-5v-6C19,34.2,16.8,32,14,32z"/><path fill="#a5d6a7" d="M42,8c-2.8,0-5,2.2-5,5v30c0,2.8,2.2,5,5,5s5-2.2,5-5V13C47,10.2,44.8,8,42,8z"/><path fill="none" stroke="#18193f" stroke-linecap="round" stroke-linejoin="round" stroke-width="3" d="M27.5,34.7c0-4.1,0-9.6,0-10.7c0-1.9-1.6-3.5-3.5-3.5s-3.5,1.6-3.5,3.5c0,0.4,0,1.4,0,2.6"/><path fill="none" stroke="#18193f" stroke-linecap="round" stroke-linejoin="round" stroke-width="3" d="M20.5,32.2c0,2.3,0,6.2,0,6.8c0,1.9,1.6,3.5,3.5,3.5s3.5-1.6,3.5-3.5"/><path fill="none" stroke="#18193f" stroke-linecap="round" stroke-linejoin="round" stroke-width="3" d="M6.5,39c0,1.9,1.6,3.5,3.5,3.5s3.5-1.6,3.5-3.5c0-1.7,0-4.3,0-6c0-1.9-1.6-3.5-3.5-3.5S6.5,31.1,6.5,33"/><path fill="none" stroke="#18193f" stroke-linecap="round" stroke-width="3" d="M41.5,30.4c0-8.5,0-20.4,0-21.4c0-1.9-1.6-3.5-3.5-3.5S34.5,7.1,34.5,9c0,0.3,0,1.2,0,2.5"/><path fill="none" stroke="#18193f" stroke-linecap="round" stroke-width="3" d="M34.5,16.9c0,8.5,0,21,0,22.1c0,1.9,1.6,3.5,3.5,3.5s3.5-1.6,3.5-3.5c0-0.3,0-1.4,0-3"/><line x1="5.5" x2="23.5" y1="23.5" y2="7.5" fill="none" stroke="#18193f" stroke-linecap="round" stroke-linejoin="round" stroke-width="3"/><path fill="none" stroke="#18193f" stroke-linecap="round" stroke-linejoin="round" stroke-width="3" d="M24.5,13.5v-7h-7"/></svg>