<svg xmlns="http://www.w3.org/2000/svg" id="Layer_1" x="0" y="0" version="1.1" viewBox="0 0 48 48" xml:space="preserve"><path fill="#8ce7f2" d="M41.9,39H14.1c-2.3,0-4.1-1.8-4.1-4.1V13c0-1.1,0.9-2,2-2h32c1.1,0,2,0.9,2,2v21.9C46,37.2,44.2,39,41.9,39z"/><path fill="none" stroke="#18193f" stroke-linecap="round" stroke-linejoin="round" stroke-width="3" d="M41.5,26.2v4.3c0,2.2-1.8,4-4,4h-27c-2.2,0-4-1.8-4-4V16.4"/><path fill="none" stroke="#18193f" stroke-linecap="round" stroke-linejoin="round" stroke-width="3" d="M41.5,7.5v12.9"/><line x1="4.5" x2="43.5" y1="7.5" y2="7.5" fill="none" stroke="#18193f" stroke-linecap="round" stroke-linejoin="round" stroke-width="3"/><line x1="24" x2="24" y1="4.5" y2="7.5" fill="none" stroke="#18193f" stroke-linecap="round" stroke-linejoin="round" stroke-width="3"/><line x1="19" x2="14.5" y1="34.5" y2="43.5" fill="none" stroke="#18193f" stroke-linecap="round" stroke-linejoin="round" stroke-width="3"/><line x1="29" x2="33.5" y1="34.5" y2="43.5" fill="none" stroke="#18193f" stroke-linecap="round" stroke-linejoin="round" stroke-width="3"/><polyline fill="none" stroke="#18193f" stroke-linecap="round" stroke-linejoin="round" stroke-width="3" points="13.5,26.5 18.5,21.5 23.5,26.5 34.5,15.5"/></svg>